<?xml version="1.0" standalone="no"?>
<!DOCTYPE svg PUBLIC "-//W3C//DTD SVG 20010904//EN"
 "http://www.w3.org/TR/2001/REC-SVG-20010904/DTD/svg10.dtd">
<svg version="1.0" xmlns="http://www.w3.org/2000/svg"
 width="512.000000pt" height="512.000000pt" viewBox="0 0 512.000000 512.000000"
 preserveAspectRatio="xMidYMid meet">
<metadata>
Created by potrace 1.11, written by Peter Selinger 2001-2013
</metadata>
<g transform="translate(0.000000,512.000000) scale(0.100000,-0.100000)"
fill="#000000" stroke="none">
<path d="M30 2565 l0 -2525 2525 0 2525 0 0 2525 0 2525 -2525 0 -2525 0 0
-2525z m4610 -10 l0 -2085 -2085 0 -2085 0 0 2085 0 2085 2085 0 2085 0 0
-2085z"/>
<path d="M2420 4049 c-36 -5 -71 -7 -77 -4 -7 2 -13 0 -13 -5 0 -6 -10 -10
-23 -10 -47 0 -327 -97 -407 -141 -232 -128 -409 -291 -553 -511 -42 -65 -107
-185 -127 -238 -7 -19 -19 -50 -25 -67 -7 -18 -11 -33 -8 -33 2 0 0 -8 -6 -17
-10 -20 -46 -193 -55 -265 -3 -27 -9 -69 -12 -95 -13 -97 -6 -251 16 -363 6
-30 13 -66 16 -80 12 -63 59 -202 91 -270 84 -177 194 -333 327 -465 225 -221
546 -376 861 -413 79 -9 345 -9 415 1 224 31 390 90 558 199 124 81 212 159
307 273 28 33 52 62 55 65 35 33 190 300 174 300 -3 0 0 8 5 19 14 25 60 183
72 246 31 162 33 510 3 629 l-6 26 -704 0 -704 0 0 -290 0 -290 405 0 405 0
-5 -28 c-8 -46 -69 -187 -85 -197 -5 -3 -17 -23 -27 -43 -9 -20 -49 -69 -88
-108 -139 -140 -358 -219 -600 -218 -168 1 -273 23 -385 80 -86 44 -122 69
-113 79 5 4 3 5 -3 2 -12 -7 -91 55 -147 116 -125 135 -219 325 -243 489 -6
45 -6 164 1 211 3 20 7 54 10 75 11 81 19 108 55 191 72 170 185 317 310 404
59 41 174 100 236 121 124 40 292 52 417 30 107 -20 248 -79 318 -133 33 -25
72 -53 86 -62 l25 -17 209 210 210 210 -28 25 c-15 14 -43 39 -61 55 -146 134
-448 270 -650 294 -32 3 -61 8 -65 11 -16 9 -301 11 -367 2z"/>
</g>
</svg>
